<svg xmlns="http://www.w3.org/2000/svg" width="1024" height="1024" viewBox="0 0 1024 1024">
  <defs>
    <linearGradient id="bg" x1="0%" y1="0%" x2="100%" y2="100%">
      <stop offset="0%" stop-color="#8B5CF6"/>
      <stop offset="60%" stop-color="#A855F7"/>
      <stop offset="100%" stop-color="#EC4899"/>
    </linearGradient>
    <linearGradient id="sparkleGrad" x1="0%" y1="0%" x2="0%" y2="100%">
      <stop offset="0%" stop-color="#FFFFFF"/>
      <stop offset="100%" stop-color="#FDE68A"/>
    </linearGradient>
    <filter id="soft" x="-20%" y="-20%" width="140%" height="140%">
      <feGaussianBlur stdDeviation="10"/>
    </filter>
  </defs>

  <rect width="1024" height="1024" rx="220" ry="220" fill="url(#bg)"/>

  <circle cx="180" cy="200" r="40" fill="#FFFFFF" opacity="0.25"/>
  <circle cx="860" cy="260" r="24" fill="#FFFFFF" opacity="0.35"/>
  <circle cx="230" cy="820" r="30" fill="#FFFFFF" opacity="0.28"/>
  <circle cx="820" cy="800" r="48" fill="#FFFFFF" opacity="0.22"/>

  <g transform="translate(512 512)">
    <g opacity="0.25" filter="url(#soft)">
      <path d="M 0 -320 L 90 -90 L 320 0 L 90 90 L 0 320 L -90 90 L -320 0 L -90 -90 Z" fill="#FFFFFF"/>
    </g>

    <path d="M 0 -300 L 85 -85 L 300 0 L 85 85 L 0 300 L -85 85 L -300 0 L -85 -85 Z"
          fill="url(#sparkleGrad)" stroke="#FFFFFF" stroke-width="10" stroke-linejoin="round"/>

    <circle cx="-70" cy="-30" r="24" fill="#4C1D95"/>
    <circle cx="-62" cy="-38" r="8" fill="#FFFFFF"/>
    <circle cx="70" cy="-30" r="24" fill="#4C1D95"/>
    <circle cx="78" cy="-38" r="8" fill="#FFFFFF"/>

    <path d="M -90 55 Q 0 140 90 55" fill="none" stroke="#4C1D95" stroke-width="22" stroke-linecap="round"/>

    <circle cx="-150" cy="30" r="18" fill="#FCA5A5" opacity="0.75"/>
    <circle cx="150" cy="30" r="18" fill="#FCA5A5" opacity="0.75"/>
  </g>

  <g transform="translate(780 180)">
    <path d="M 0 -40 L 12 -12 L 40 0 L 12 12 L 0 40 L -12 12 L -40 0 L -12 -12 Z" fill="#FFFFFF"/>
  </g>
  <g transform="translate(200 780)">
    <path d="M 0 -28 L 8 -8 L 28 0 L 8 8 L 0 28 L -8 8 L -28 0 L -8 -8 Z" fill="#FFFFFF"/>
  </g>
</svg>
